<svg xmlns="http://www.w3.org/2000/svg" viewBox="0 0 480 480"><path d="M40 472h80V280c0 17.672 14.328 32 32 32h48v-32h-48v-24c0-17.672-14.328-32-32-32H40c-17.672 0-32 14.328-32 32v88h32v128z" fill="#66cedb"/><path d="M40 224h40c-22.088 0-40-17.912-40-40s17.912-40 40-40 40 17.912 40 40-17.912 40-40 40h40c17.672 0 32 14.328 32 32v24h48v32h-48c-17.672 0-32-14.328-32-32v64h240v-88h-48c-17.672 0-32-14.328-32-32v-56h32v56h88c-22.088 0-40-17.912-40-40s17.912-40 40-40 40 17.912 40 40-17.912 40-40 40h40c17.672 0 32 14.328 32 32V40H8v216c0-17.672 14.328-32 32-32zM400 72c8.84 0 16 7.16 16 16s-7.16 16-16 16c-6.736 0-12.472-4.176-14.832-10.064C384.432 92.096 384 90.104 384 88c0-8.84 7.16-16 16-16zm-80 32c6.736 0 12.472 4.176 14.832 10.064.736 1.84 1.168 3.832 1.168 5.936 0 8.84-7.16 16-16 16s-16-7.16-16-16 7.16-16 16-16zm-80-24c8.84 0 16 7.16 16 16s-7.16 16-16 16c-5.424 0-10.192-2.712-13.088-6.84-1.824-2.6-2.912-5.744-2.912-9.16 0-8.84 7.16-16 16-16zm-80 56c5.424 0 10.192 2.712 13.088 6.84 1.824 2.6 2.912 5.744 2.912 9.16 0 8.84-7.16 16-16 16s-16-7.16-16-16 7.16-16 16-16zM80 72c8.84 0 16 7.16 16 16s-7.16 16-16 16-16-7.16-16-16 7.16-16 16-16z" fill="#f9ecde"/><path d="M440 224H312v-56h-32v56c0 17.672 14.328 32 32 32h48v216h80V344h32v-88c0-17.672-14.328-32-32-32z" fill="#f6bf58"/><circle cx="80" cy="184" r="40" fill="#66cedb"/><circle cx="400" cy="184" r="40" fill="#f6bf58"/><path fill="#66cedb" d="M8 8h464v32H8z"/><g fill="#f6bf58"><circle cx="80" cy="88" r="16"/><path d="M160 168c8.84 0 16-7.16 16-16 0-3.416-1.088-6.56-2.912-9.16-2.896-4.128-7.664-6.84-13.088-6.84-8.84 0-16 7.16-16 16s7.16 16 16 16z"/></g><path d="M240 112c8.84 0 16-7.16 16-16s-7.16-16-16-16-16 7.16-16 16c0 3.416 1.088 6.56 2.912 9.16 2.896 4.128 7.664 6.84 13.088 6.84z" fill="#66cedb"/><path d="M320 136c8.84 0 16-7.16 16-16 0-2.104-.432-4.096-1.168-5.936C332.472 108.176 326.736 104 320 104c-8.84 0-16 7.16-16 16s7.16 16 16 16z" fill="#f6bf58"/><path d="M400 104c8.84 0 16-7.16 16-16s-7.16-16-16-16-16 7.16-16 16c0 2.104.432 4.096 1.168 5.936C387.528 99.824 393.264 104 400 104z" fill="#66cedb"/><g fill="#010133"><path d="M8 352h24v120c0 4.416 3.584 8 8 8h80c4.416 0 8-3.584 8-8V352h224v120c0 4.416 3.584 8 8 8h80c4.416 0 8-3.584 8-8V352h24c4.416 0 8-3.584 8-8V8c0-4.416-3.584-8-8-8H8C3.584 0 0 3.584 0 8v336c0 4.416 3.584 8 8 8zm120-16v-24.208c6.704 5.08 14.96 8.208 24 8.208h48c4.416 0 8-3.584 8-8v-32c0-4.416-3.584-8-8-8h-40v-16c0-22.056-17.944-40-40-40h-4.32c7.632-8.504 12.32-19.696 12.32-32 0-26.472-21.528-48-48-48s-48 21.528-48 48c0 12.304 4.688 23.496 12.32 32H40c-9.04 0-17.296 3.128-24 8.208V48h448v176.208c-6.704-5.08-14.96-8.208-24-8.208h-4.32c7.632-8.504 12.32-19.696 12.32-32 0-26.472-21.528-48-48-48s-48 21.528-48 48c0 12.304 4.688 23.496 12.32 32H320v-48c0-4.416-3.584-8-8-8h-32c-4.416 0-8 3.584-8 8v56c0 22.056 17.944 40 40 40h40v72H128zM48 184c0-17.648 14.352-32 32-32s32 14.352 32 32-14.352 32-32 32-32-14.352-32-32zm320 0c0-17.648 14.352-32 32-32s32 14.352 32 32-14.352 32-32 32-32-14.352-32-32zm96 152h-16v-80h-16v208h-24V344h-16v120h-24V256c0-4.416-3.584-8-8-8h-48c-13.232 0-24-10.768-24-24v-48h16v48c0 4.416 3.584 8 8 8h128c13.232 0 24 10.768 24 24v80zM16 16h448v16H16V16zm0 240c0-13.232 10.768-24 24-24h80c13.232 0 24 10.768 24 24v24c0 4.416 3.584 8 8 8h40v16h-40c-13.232 0-24-10.768-24-24v-24h-16v208H88V344H72v120H48V256H32v80H16v-80z"/><path d="M183.032 145.64l43.064-30.144C230.032 118.304 234.808 120 240 120c7.928 0 14.92-3.912 19.288-9.856l36.832 11.048C296.752 133.864 307.176 144 320 144c13.232 0 24-10.768 24-24 0-.32-.08-.624-.096-.944l38.168-15.264C386.472 108.784 392.84 112 400 112c13.232 0 24-10.768 24-24s-10.768-24-24-24-24 10.768-24 24c0 .32.08.624.096.944l-38.168 15.264C333.528 99.216 327.16 96 320 96c-7.928 0-14.92 3.912-19.288 9.856L263.88 94.808C263.248 82.136 252.824 72 240 72c-13.232 0-24 10.768-24 24 0 2.216.4 4.32.968 6.36l-43.064 30.144C169.968 129.696 165.192 128 160 128c-4.64 0-8.936 1.384-12.608 3.672l-44.808-35.848C103.44 93.36 104 90.752 104 88c0-13.232-10.768-24-24-24S56 74.768 56 88s10.768 24 24 24c4.64 0 8.936-1.384 12.608-3.672l44.808 35.848C136.56 146.64 136 149.248 136 152c0 13.232 10.768 24 24 24s24-10.768 24-24c0-2.216-.4-4.32-.968-6.36zM400 80c4.408 0 8 3.592 8 8s-3.592 8-8 8-8-3.592-8-8 3.592-8 8-8zm-80 32c4.408 0 8 3.592 8 8s-3.592 8-8 8-8-3.592-8-8 3.592-8 8-8zm-80-24c4.408 0 8 3.592 8 8s-3.592 8-8 8-8-3.592-8-8 3.592-8 8-8zM80 96c-4.408 0-8-3.592-8-8s3.592-8 8-8 8 3.592 8 8-3.592 8-8 8zm80 64c-4.408 0-8-3.592-8-8s3.592-8 8-8 8 3.592 8 8-3.592 8-8 8zm40 16h56v16h-56zm-16 32h72v16h-72zm0 32h72v16h-72zm136 64h16v16h-16zm-32 0h16v16h-16zm-32 0h16v16h-16z"/></g></svg>