<?xml version="1.0" encoding="iso-8859-1"?>
<!-- Generator: Adobe Illustrator 19.0.0, SVG Export Plug-In . SVG Version: 6.00 Build 0)  -->
<svg version="1.1" id="Layer_1" xmlns="http://www.w3.org/2000/svg" xmlns:xlink="http://www.w3.org/1999/xlink" x="0px" y="0px"
	 viewBox="0 0 480 480" style="enable-background:new 0 0 480 480;" xml:space="preserve">
<path style="fill:#66CEDB;" d="M40,472h40h40V344v-64c0,17.672,14.328,32,32,32h48v-32h-48v-24c0-17.672-14.328-32-32-32H80H40
	c-17.672,0-32,14.328-32,32v8v80h32V472z"/>
<path style="fill:#F9ECDE;" d="M40,224h40c-22.088,0-40-17.912-40-40s17.912-40,40-40s40,17.912,40,40s-17.912,40-40,40h40
	c17.672,0,32,14.328,32,32v24h48v32h-48c-17.672,0-32-14.328-32-32v64h240v-88h-48c-17.672,0-32-14.328-32-32v-56h32v56h88
	c-22.088,0-40-17.912-40-40s17.912-40,40-40s40,17.912,40,40s-17.912,40-40,40h40c17.672,0,32,14.328,32,32V40H8v216
	C8,238.328,22.328,224,40,224z M400,72c8.84,0,16,7.16,16,16s-7.16,16-16,16c-6.736,0-12.472-4.176-14.832-10.064
	C384.432,92.096,384,90.104,384,88C384,79.16,391.16,72,400,72z M320,104c6.736,0,12.472,4.176,14.832,10.064
	c0.736,1.84,1.168,3.832,1.168,5.936c0,8.84-7.16,16-16,16s-16-7.16-16-16S311.16,104,320,104z M240,80c8.84,0,16,7.16,16,16
	s-7.16,16-16,16c-5.424,0-10.192-2.712-13.088-6.84C225.088,102.56,224,99.416,224,96C224,87.16,231.16,80,240,80z M160,136
	c5.424,0,10.192,2.712,13.088,6.84c1.824,2.6,2.912,5.744,2.912,9.16c0,8.84-7.16,16-16,16s-16-7.16-16-16S151.16,136,160,136z
	 M80,72c8.84,0,16,7.16,16,16s-7.16,16-16,16s-16-7.16-16-16S71.16,72,80,72z"/>
<path style="fill:#F6BF58;" d="M440,224h-40h-88v-56h-32v56c0,17.672,14.328,32,32,32h48v88v128h40h40V344h32v-80v-8
	C472,238.328,457.672,224,440,224z"/>
<circle style="fill:#66CEDB;" cx="80" cy="184" r="40"/>
<circle style="fill:#F6BF58;" cx="400" cy="184" r="40"/>
<rect x="8" y="8" style="fill:#66CEDB;" width="464" height="32"/>
<g>
	<circle style="fill:#F6BF58;" cx="80" cy="88" r="16"/>
	<path style="fill:#F6BF58;" d="M160,168c8.84,0,16-7.16,16-16c0-3.416-1.088-6.56-2.912-9.16c-2.896-4.128-7.664-6.84-13.088-6.84
		c-8.84,0-16,7.16-16,16S151.16,168,160,168z"/>
</g>
<path style="fill:#66CEDB;" d="M240,112c8.84,0,16-7.16,16-16s-7.16-16-16-16s-16,7.16-16,16c0,3.416,1.088,6.56,2.912,9.16
	C229.808,109.288,234.576,112,240,112z"/>
<path style="fill:#F6BF58;" d="M320,136c8.84,0,16-7.16,16-16c0-2.104-0.432-4.096-1.168-5.936C332.472,108.176,326.736,104,320,104
	c-8.84,0-16,7.16-16,16S311.16,136,320,136z"/>
<path style="fill:#66CEDB;" d="M400,104c8.84,0,16-7.16,16-16s-7.16-16-16-16s-16,7.16-16,16c0,2.104,0.432,4.096,1.168,5.936
	C387.528,99.824,393.264,104,400,104z"/>
<g>
	<path style="fill:#010133;" d="M8,352h24v120c0,4.416,3.584,8,8,8h40h40c4.416,0,8-3.584,8-8V352h224v120c0,4.416,3.584,8,8,8h40
		h40c4.416,0,8-3.584,8-8V352h24c4.416,0,8-3.584,8-8v-80v-8V40V8c0-4.416-3.584-8-8-8H8C3.584,0,0,3.584,0,8v32v216v8v80
		C0,348.416,3.584,352,8,352z M128,336v-24.208c6.704,5.08,14.96,8.208,24,8.208h48c4.416,0,8-3.584,8-8v-32c0-4.416-3.584-8-8-8
		h-40v-16c0-22.056-17.944-40-40-40h-4.32c7.632-8.504,12.32-19.696,12.32-32c0-26.472-21.528-48-48-48s-48,21.528-48,48
		c0,12.304,4.688,23.496,12.32,32H40c-9.04,0-17.296,3.128-24,8.208V48h448v176.208c-6.704-5.08-14.96-8.208-24-8.208h-4.32
		c7.632-8.504,12.32-19.696,12.32-32c0-26.472-21.528-48-48-48s-48,21.528-48,48c0,12.304,4.688,23.496,12.32,32H320v-48
		c0-4.416-3.584-8-8-8h-32c-4.416,0-8,3.584-8,8v56c0,22.056,17.944,40,40,40h40v72H128z M48,184c0-17.648,14.352-32,32-32
		s32,14.352,32,32s-14.352,32-32,32S48,201.648,48,184z M368,184c0-17.648,14.352-32,32-32s32,14.352,32,32s-14.352,32-32,32
		S368,201.648,368,184z M464,336h-16v-80h-16v208h-24V344h-16v120h-24V256c0-4.416-3.584-8-8-8h-48c-13.232,0-24-10.768-24-24v-48
		h16v48c0,4.416,3.584,8,8,8h128c13.232,0,24,10.768,24,24v8V336z M16,16h448v16H16V16z M16,256c0-13.232,10.768-24,24-24h80
		c13.232,0,24,10.768,24,24v24c0,4.416,3.584,8,8,8h40v16h-40c-13.232,0-24-10.768-24-24v-16v-8h-16v8v16v184H88V344H72v120H48V256
		H32v80H16v-72V256z"/>
	<path style="fill:#010133;" d="M183.032,145.64l43.064-30.144C230.032,118.304,234.808,120,240,120
		c7.928,0,14.92-3.912,19.288-9.856l36.832,11.048C296.752,133.864,307.176,144,320,144c13.232,0,24-10.768,24-24
		c0-0.32-0.08-0.624-0.096-0.944l38.168-15.264C386.472,108.784,392.84,112,400,112c13.232,0,24-10.768,24-24s-10.768-24-24-24
		s-24,10.768-24,24c0,0.32,0.08,0.624,0.096,0.944l-38.168,15.264C333.528,99.216,327.16,96,320,96
		c-7.928,0-14.92,3.912-19.288,9.856L263.88,94.808C263.248,82.136,252.824,72,240,72c-13.232,0-24,10.768-24,24
		c0,2.216,0.4,4.32,0.968,6.36l-43.064,30.144C169.968,129.696,165.192,128,160,128c-4.64,0-8.936,1.384-12.608,3.672
		l-44.808-35.848C103.44,93.36,104,90.752,104,88c0-13.232-10.768-24-24-24S56,74.768,56,88s10.768,24,24,24
		c4.64,0,8.936-1.384,12.608-3.672l44.808,35.848C136.56,146.64,136,149.248,136,152c0,13.232,10.768,24,24,24s24-10.768,24-24
		C184,149.784,183.6,147.68,183.032,145.64z M400,80c4.408,0,8,3.592,8,8s-3.592,8-8,8s-8-3.592-8-8S395.592,80,400,80z M320,112
		c4.408,0,8,3.592,8,8s-3.592,8-8,8s-8-3.592-8-8S315.592,112,320,112z M240,88c4.408,0,8,3.592,8,8s-3.592,8-8,8s-8-3.592-8-8
		S235.592,88,240,88z M80,96c-4.408,0-8-3.592-8-8s3.592-8,8-8s8,3.592,8,8S84.408,96,80,96z M160,160c-4.408,0-8-3.592-8-8
		s3.592-8,8-8s8,3.592,8,8S164.408,160,160,160z"/>
	<rect x="200" y="176" style="fill:#010133;" width="56" height="16"/>
	<rect x="184" y="208" style="fill:#010133;" width="72" height="16"/>
	<rect x="184" y="240" style="fill:#010133;" width="72" height="16"/>
	<rect x="320" y="304" style="fill:#010133;" width="16" height="16"/>
	<rect x="288" y="304" style="fill:#010133;" width="16" height="16"/>
	<rect x="256" y="304" style="fill:#010133;" width="16" height="16"/>
</g>
<g>
</g>
<g>
</g>
<g>
</g>
<g>
</g>
<g>
</g>
<g>
</g>
<g>
</g>
<g>
</g>
<g>
</g>
<g>
</g>
<g>
</g>
<g>
</g>
<g>
</g>
<g>
</g>
<g>
</g>
</svg>
